<svg xmlns="http://www.w3.org/2000/svg" width="300" height="200" viewBox="0 0 300 200">
  <!-- Background -->
  <rect width="300" height="200" fill="#f8f9fa" rx="10" ry="10"/>
  
  <!-- Product Container -->
  <rect x="100" y="30" width="100" height="140" rx="10" ry="10" fill="#e9ecef" stroke="#6c757d" stroke-width="2"/>
  
  <!-- Product Label -->
  <rect x="110" y="45" width="80" height="30" rx="5" ry="5" fill="#6f42c1"/>
  <text x="150" y="65" font-family="Arial" font-size="12" fill="white" text-anchor="middle" dominant-baseline="middle">AMROT</text>
  <text x="150" y="75" font-family="Arial" font-size="8" fill="white" text-anchor="middle" dominant-baseline="middle">SENIOR CARE</text>
  
  <!-- Product Content Illustration -->
  <circle cx="150" cy="100" r="25" fill="#20c997"/>
  
  <!-- Senior Symbol - Bone Health -->
  <path d="M135,95 Q130,90 135,85 Q140,80 145,85 Q150,90 155,85 Q160,80 165,85 Q170,90 165,95 Q160,100 165,105 Q170,110 165,115 Q160,120 155,115 Q150,110 145,115 Q140,120 135,115 Q130,110 135,105 Q140,100 135,95 Z" fill="#e9ecef" stroke="#6c757d" stroke-width="1"/>
  
  <!-- Nutritional Elements -->
  <text x="150" y="140" font-family="Arial" font-size="8" fill="#343a40" text-anchor="middle">BONE & JOINT SUPPORT</text>
  <text x="150" y="155" font-family="Arial" font-size="7" fill="#343a40" text-anchor="middle">EASY DIGESTION</text>
</svg>