<svg width="1200" height="600" xmlns="http://www.w3.org/2000/svg">
  <defs>
    <linearGradient id="skyGrad" x1="0%" y1="0%" x2="0%" y2="100%">
      <stop offset="0%" style="stop-color:#87CEEB;stop-opacity:1" />
      <stop offset="100%" style="stop-color:#1E90FF;stop-opacity:1" />
    </linearGradient>
    <linearGradient id="fieldGrad" x1="0%" y1="0%" x2="0%" y2="100%">
      <stop offset="0%" style="stop-color:#7CFC00;stop-opacity:1" />
      <stop offset="100%" style="stop-color:#228B22;stop-opacity:1" />
    </linearGradient>
    <linearGradient id="mountainGrad" x1="0%" y1="0%" x2="0%" y2="100%">
      <stop offset="0%" style="stop-color:#A0522D;stop-opacity:1" />
      <stop offset="100%" style="stop-color:#8B4513;stop-opacity:1" />
    </linearGradient>
    <filter id="blur" x="-5%" y="-5%" width="110%" height="110%">
      <feGaussianBlur in="SourceGraphic" stdDeviation="5" />
    </filter>
  </defs>
  
  <!-- Sky Background -->
  <rect width="1200" height="600" fill="url(#skyGrad)" />
  
  <!-- Sun -->
  <circle cx="900" cy="150" r="80" fill="#FFD700" />
  <circle cx="900" cy="150" r="90" fill="#FFD700" opacity="0.3" />
  <circle cx="900" cy="150" r="100" fill="#FFD700" opacity="0.1" />
  
  <!-- Clouds -->
  <g opacity="0.8" filter="url(#blur)">
    <ellipse cx="200" cy="120" rx="70" ry="40" fill="white" />
    <ellipse cx="250" cy="100" rx="60" ry="35" fill="white" />
    <ellipse cx="300" cy="130" rx="65" ry="30" fill="white" />
    
    <ellipse cx="600" cy="80" rx="80" ry="30" fill="white" />
    <ellipse cx="650" cy="100" rx="70" ry="40" fill="white" />
    <ellipse cx="700" cy="70" rx="60" ry="25" fill="white" />
  </g>
  
  <!-- Mountains -->
  <path d="M0,600 L0,350 L200,200 L400,350 L600,180 L800,400 L1000,250 L1200,350 L1200,600 Z" fill="url(#mountainGrad)" />
  
  <!-- Field -->
  <path d="M0,600 L0,450 L1200,450 L1200,600 Z" fill="url(#fieldGrad)" />
  
  <!-- Trees -->
  <g>
    <!-- Tree 1 -->
    <rect x="100" y="400" width="20" height="50" fill="#8B4513" />
    <circle cx="110" cy="380" r="30" fill="#228B22" />
    
    <!-- Tree 2 -->
    <rect x="300" y="420" width="15" height="30" fill="#8B4513" />
    <circle cx="307" cy="400" r="25" fill="#228B22" />
    
    <!-- Tree 3 -->
    <rect x="500" y="410" width="18" height="40" fill="#8B4513" />
    <circle cx="509" cy="390" r="28" fill="#228B22" />
    
    <!-- Tree 4 -->
    <rect x="700" y="430" width="16" height="20" fill="#8B4513" />
    <circle cx="708" cy="410" r="22" fill="#228B22" />
    
    <!-- Tree 5 -->
    <rect x="900" y="425" width="14" height="25" fill="#8B4513" />
    <circle cx="907" cy="405" r="20" fill="#228B22" />
    
    <!-- Tree 6 -->
    <rect x="1100" y="415" width="17" height="35" fill="#8B4513" />
    <circle cx="1108" cy="395" r="26" fill="#228B22" />
  </g>
  
  <!-- Overlay to darken for text readability -->
  <rect width="1200" height="600" fill="rgba(0,0,0,0.3)" />
  
  <!-- Grain texture for natural feel -->
  <rect width="1200" height="600" fill="url(#noise)" opacity="0.05" />
</svg>